<svg xmlns="http://www.w3.org/2000/svg" width="39.985" height="24.997" viewBox="0 0 39.985 24.997"><path d="M11.563,7.505a14.862,14.862,0,0,1,3.2.313,7.2,7.2,0,0,1,2.475,1.017,4.685,4.685,0,0,1,1.6,1.867,6.66,6.66,0,0,1,.567,2.883,5.424,5.424,0,0,1-.845,3.1,6.105,6.105,0,0,1-2.5,2.033A5.873,5.873,0,0,1,19.427,21a6.84,6.84,0,0,1,1.108,3.933,6.89,6.89,0,0,1-.683,3.217,6.167,6.167,0,0,1-1.933,2.25,8.483,8.483,0,0,1-2.783,1.278,12.193,12.193,0,0,1-3.183.423H0V7.517H11.563Zm16.67,20.27a4.349,4.349,0,0,0,3.157,1.072,4.353,4.353,0,0,0,2.55-.745,3.068,3.068,0,0,0,1.3-1.567h4.313a8.114,8.114,0,0,1-3.167,4.583A9.143,9.143,0,0,1,31.253,32.5a10.215,10.215,0,0,1-3.787-.667,8.246,8.246,0,0,1-2.867-1.9,8.5,8.5,0,0,1-1.8-2.95,10.935,10.935,0,0,1-.622-3.783,10.136,10.136,0,0,1,.672-3.717,8.651,8.651,0,0,1,4.76-4.973,8.931,8.931,0,0,1,3.7-.722,8.4,8.4,0,0,1,3.967.872A8,8,0,0,1,38.048,17a9.281,9.281,0,0,1,1.567,3.367,13.448,13.448,0,0,1,.35,3.967H27.148a5.051,5.051,0,0,0,1.183,3.442l-.133.05Zm-17.067.083a7.017,7.017,0,0,0,1.51-.155,3.865,3.865,0,0,0,1.272-.5,2.47,2.47,0,0,0,.867-.972,3.417,3.417,0,0,0,.317-1.6,3.235,3.235,0,0,0-1.067-2.7,4.59,4.59,0,0,0-2.817-.8H5.4v6.75h5.767v-.05Zm22.678-9.417a3.668,3.668,0,0,0-2.762-.987,4.133,4.133,0,0,0-1.943.4,3.591,3.591,0,0,0-1.233.983,3.47,3.47,0,0,0-.653,1.25,5.843,5.843,0,0,0-.225,1.183h7.937a4.761,4.761,0,0,0-1.133-2.817v.017ZM10.867,17.417a3.881,3.881,0,0,0,2.375-.687,2.565,2.565,0,0,0,.923-2.23,3.14,3.14,0,0,0-.3-1.41,2.436,2.436,0,0,0-.833-.853,3.529,3.529,0,0,0-1.2-.428,7.377,7.377,0,0,0-1.4-.123H5.383v5.733h5.483ZM26.03,9.153h9.947v2.423H26.03V9.15Z" transform="translate(0 -7.505)" fill="#818080"/></svg>