<svg xmlns="http://www.w3.org/2000/svg" width="30" height="29.92" viewBox="0 0 40 39.92"><path d="M40,13.637l-.03-.145-.028-.083c-.017-.04-.03-.083-.05-.125a.621.621,0,0,0-.033-.083l-.058-.112-.05-.083-.073-.1L39.6,12.83l-.1-.075-.077-.05-.1-.073-.073-.067-.025-.033L20.967.317a1.706,1.706,0,0,0-1.9,0L.755,12.5l-.025.025-.073.058-.1.083-.063.067L.41,12.83.348,12.9.265,13c-.033.028-.05.05-.05.077l-.083.1-.033.1c-.033.017-.033.067-.05.117l-.017.083A.266.266,0,0,0,0,13.633v12.5a1.476,1.476,0,0,0,.017.225l.017.077a.751.751,0,0,0,.033.143l.025.083c.017.045.027.088.045.125l.037.083a.274.274,0,0,0,.05.1l.05.067a.519.519,0,0,1,.075.1L.4,27.2l.067.067c.017.022.017.05.05.05l.1.07.067.05.017.023L18.982,39.675a1.615,1.615,0,0,0,.95.272,1.7,1.7,0,0,0,.95-.3L39.2,27.513l.023-.017.077-.062.1-.072.08-.06.087-.1.055-.075.067-.1.05-.083.05-.117.027-.087.05-.128.025-.075.05-.133v-12.5a.675.675,0,0,0-.027-.233l-.023-.075.073.005ZM20.017,24.1l-6.083-4.067,6.083-4.07L26.1,20.033,20.017,24.1ZM18.293,12.98l-7.455,4.983L4.817,13.937,18.293,4.953v8.03ZM7.743,20.035l-4.3,2.883V17.167l4.3,2.877Zm3.1,2.083L18.293,27.1v8.033L4.817,26.15l6.03-4.028v-.007Zm10.9,4.983,7.457-4.967,6.022,4.033L21.733,35.152V27.118Zm10.55-7.05,4.305-2.867v5.76l-4.305-2.883Zm-3.092-2.067L21.737,13V4.95l13.475,8.983-6.02,4.025v0Z" transform="translate(0 -0.027)" fill="#818080"/></svg>