<svg xmlns="http://www.w3.org/2000/svg" width="35" height="35" viewBox="0 0 35 35"><path d="M32.5,2.5H2.492A2.511,2.511,0,0,0,0,5.023V34.977A2.511,2.511,0,0,0,2.492,37.5H32.5A2.517,2.517,0,0,0,35,34.977V5.023A2.517,2.517,0,0,0,32.5,2.5Zm-21.922,30H5.391V15.8h5.2V32.5ZM7.984,13.516a3.008,3.008,0,1,1,3.008-3.008A3.009,3.009,0,0,1,7.984,13.516ZM30.023,32.5H24.836V24.375c0-1.937-.039-4.43-2.7-4.43-2.7,0-3.117,2.109-3.117,4.289V32.5H13.836V15.8h4.977v2.281h.07a5.464,5.464,0,0,1,4.914-2.7c5.25,0,6.227,3.461,6.227,7.961Z" transform="translate(0 -2.5)" fill="#818080"/></svg>